# xmcd
#
# Track frame offsets: 
#        150
#        13961
#        30472
#        46128
#        61639
#        76391
#        90609
#        104362
#        129700
#        143062
#        164457
#        180155
#        193427
#
# Disc length: 2861 seconds
#
# Revision: 0
# Processed by: cddbd v1.4PL0 Copyright (c) Steve Scherf et al.
# Submitted via: ExactAudioCopy v0.95a3
#
DISCID=a60b2b0d
DTITLE=Roy Heinrich - Playin' Favorites
DYEAR=2002
DGENRE=Country
TTITLE0=Sittin' In This Honky Tonk
TTITLE1=Fayette Country
TTITLE2=Is Anybody Going to San Antone?
TTITLE3=I Still Miss Someone
TTITLE4=Honky Tonk Man
TTITLE5=You Walked Your Walk
TTITLE6=Who Do You Think You Are
TTITLE7=Take Me Drunk
TTITLE8=Rebecca
TTITLE9=A Girl from Baltimore
TTITLE10=What Would Jesus Do?
TTITLE11=Hey Good Lookin'
TTITLE12=How Would You Feel
EXTD=
EXTT0=
EXTT1=
EXTT2=
EXTT3=
EXTT4=
EXTT5=
EXTT6=
EXTT7=
EXTT8=
EXTT9=
EXTT10=
EXTT11=
EXTT12=
PLAYORDER=
